<svg viewBox="0 0 800 500" xmlns="http://www.w3.org/2000/svg">
  <!-- Background -->
  <rect width="800" height="500" fill="#f9f9f9"/>
  
  <!-- Title -->
  <text x="400" y="40" font-family="Arial" font-size="24" text-anchor="middle" font-weight="bold">Event-Driven Architecture with AWS Serverless Services</text>
  
  <!-- S3 Bucket -->
  <rect x="100" y="150" width="120" height="120" rx="10" fill="#FF9900" fill-opacity="0.2" stroke="#FF9900" stroke-width="2"/>
  <text x="160" y="210" font-family="Arial" font-size="16" text-anchor="middle" font-weight="bold">S3 Bucket</text>
  <text x="160" y="230" font-family="Arial" font-size="12" text-anchor="middle">File Upload Events</text>
  
  <!-- Lambda Function -->
  <rect x="340" y="150" width="120" height="120" rx="10" fill="#9D1FFF" fill-opacity="0.2" stroke="#9D1FFF" stroke-width="2"/>
  <text x="400" y="210" font-family="Arial" font-size="16" text-anchor="middle" font-weight="bold">Lambda</text>
  <text x="400" y="230" font-family="Arial" font-size="12" text-anchor="middle">Event Processor</text>
  <text x="400" y="250" font-family="Arial" font-size="12" text-anchor="middle">Node.js 22</text>
  
  <!-- SNS Topic -->
  <rect x="580" y="150" width="120" height="120" rx="10" fill="#FF4F8B" fill-opacity="0.2" stroke="#FF4F8B" stroke-width="2"/>
  <text x="640" y="210" font-family="Arial" font-size="16" text-anchor="middle" font-weight="bold">SNS Topic</text>
  <text x="640" y="230" font-family="Arial" font-size="12" text-anchor="middle">Email Notifications</text>
  
  <!-- Email Recipients -->
  <rect x="580" y="350" width="120" height="60" rx="10" fill="#232F3E" fill-opacity="0.2" stroke="#232F3E" stroke-width="2"/>
  <text x="640" y="385" font-family="Arial" font-size="14" text-anchor="middle">Email Recipients</text>
  
  <!-- AWS SAM -->
  <rect x="200" y="350" width="160" height="70" rx="10" fill="#1A73E8" fill-opacity="0.2" stroke="#1A73E8" stroke-width="2"/>
  <text x="280" y="380" font-family="Arial" font-size="16" text-anchor="middle" font-weight="bold">AWS SAM</text>
  <text x="280" y="400" font-family="Arial" font-size="12" text-anchor="middle">Infrastructure as Code</text>
  
  <!-- GitHub Actions -->
  <rect x="400" y="350" width="160" height="70" rx="10" fill="#4CAF50" fill-opacity="0.2" stroke="#4CAF50" stroke-width="2"/>
  <text x="480" y="380" font-family="Arial" font-size="16" text-anchor="middle" font-weight="bold">GitHub Actions</text>
  <text x="480" y="400" font-family="Arial" font-size="12" text-anchor="middle">CI/CD Pipeline</text>
  
  <!-- Connection Lines -->
  <!-- S3 to Lambda -->
  <line x1="220" y1="210" x2="340" y2="210" stroke="#333" stroke-width="2"/>
  <polygon points="335,205 345,210 335,215" fill="#333"/>
  <text x="280" y="200" font-family="Arial" font-size="12" text-anchor="middle">Object Created Event</text>
  
  <!-- Lambda to SNS -->
  <line x1="460" y1="210" x2="580" y2="210" stroke="#333" stroke-width="2"/>
  <polygon points="575,205 585,210 575,215" fill="#333"/>
  <text x="520" y="200" font-family="Arial" font-size="12" text-anchor="middle">Publish Notification</text>
  
  <!-- SNS to Email -->
  <line x1="640" y1="270" x2="640" y2="350" stroke="#333" stroke-width="2"/>
  <polygon points="635,345 640,355 645,345" fill="#333"/>
  <text x="665" y="310" font-family="Arial" font-size="12">Email Delivery</text>
  
  <!-- SAM & GitHub to Resources -->
  <path d="M280,350 Q280,310 250,250" stroke="#1A73E8" stroke-width="2" fill="none"/>
  <path d="M280,350 Q280,300 350,250" stroke="#1A73E8" stroke-width="2" fill="none"/>
  <path d="M280,350 Q280,290 550,250" stroke="#1A73E8" stroke-width="2" fill="none"/>
  
  <path d="M480,350 Q480,320 250,280" stroke="#4CAF50" stroke-width="2" fill="none" stroke-dasharray="5,5"/>
  <path d="M480,350 Q480,310 350,280" stroke="#4CAF50" stroke-width="2" fill="none" stroke-dasharray="5,5"/>
  <path d="M480,350 Q480,300 550,280" stroke="#4CAF50" stroke-width="2" fill="none" stroke-dasharray="5,5"/>
  
  <!-- Legend -->
  <rect x="100" y="440" width="15" height="15" fill="#FF9900" fill-opacity="0.2" stroke="#FF9900" stroke-width="2"/>
  <text x="125" y="452" font-family="Arial" font-size="12" text-anchor="start">Amazon S3</text>
  
  <rect x="200" y="440" width="15" height="15" fill="#9D1FFF" fill-opacity="0.2" stroke="#9D1FFF" stroke-width="2"/>
  <text x="225" y="452" font-family="Arial" font-size="12" text-anchor="start">AWS Lambda</text>
  
  <rect x="300" y="440" width="15" height="15" fill="#FF4F8B" fill-opacity="0.2" stroke="#FF4F8B" stroke-width="2"/>
  <text x="325" y="452" font-family="Arial" font-size="12" text-anchor="start">Amazon SNS</text>
  
  <rect x="400" y="440" width="15" height="15" fill="#1A73E8" fill-opacity="0.2" stroke="#1A73E8" stroke-width="2"/>
  <text x="425" y="452" font-family="Arial" font-size="12" text-anchor="start">AWS SAM</text>
  
  <rect x="500" y="440" width="15" height="15" fill="#4CAF50" fill-opacity="0.2" stroke="#4CAF50" stroke-width="2"/>
  <text x="525" y="452" font-family="Arial" font-size="12" text-anchor="start">GitHub Actions</text>
  
  <line x1="600" y1="447" x2="630" y2="447" stroke="#333" stroke-width="2"/>
  <polygon points="625,442 635,447 625,452" fill="#333"/>
  <text x="640" y="452" font-family="Arial" font-size="12" text-anchor="start">Event Flow</text>
</svg>
